<?xml version='1.0' encoding='UTF-8'?>
<svg xmlns="http://www.w3.org/2000/svg" xmlns:html="http://www.w3.org/1999/xhtml" xmlns:xlink="http://www.w3.org/1999/xlink" style="background: #ffffff; background-color: light-dark(#ffffff, #121212); color-scheme: light;" version="1.1" width="1600px" height="810px" viewBox="0 0 1600 810"><defs /><rect fill="#ffffff" width="100%" height="100%" x="0" y="0" style="fill: light-dark(rgb(255, 255, 255), rgb(18, 18, 18));" /><g><g data-cell-id="0"><g data-cell-id="1"><g data-cell-id="background"><g><rect x="0" y="0" width="1600" height="810" fill="#ffffff" stroke="none" pointer-events="all" style="fill: light-dark(rgb(255, 255, 255), rgb(18, 18, 18));" /></g></g><g data-cell-id="eyebrow"><g><rect x="54" y="26" width="700" height="24" fill="none" stroke="none" pointer-events="all" /></g><g><g><switch><foreignObject style="overflow: visible; text-align: left;" pointer-events="none" width="100%" height="100%" requiredFeatures="http://www.w3.org/TR/SVG11/feature#Extensibility"><html:div style="display: flex; align-items: unsafe center; justify-content: unsafe flex-start; width: 698px; height: 1px; padding-top: 38px; margin-left: 56px;"><html:div style="box-sizing: border-box; font-size: 0; text-align: left; color: #C45B00; "><html:div style="display: inline-block; font-size: 14px; font-family: Arial; color: light-dark(#C45B00, #de8436); line-height: 1.2; pointer-events: all; font-weight: bold; white-space: normal; word-wrap: normal; ">AWS REFERENCE DEPLOYMENT</html:div></html:div></html:div></foreignObject><text x="56" y="42" fill="#C45B00" font-family="Arial" font-size="14px" font-weight="bold" style="fill: light-dark(rgb(196, 91, 0), rgb(222, 132, 54));">AWS REFERENCE DEPLOYMENT</text></switch></g></g></g><g data-cell-id="title"><g><rect x="54" y="54" width="1300" height="46" fill="none" stroke="none" pointer-events="all" /></g><g><g><switch><foreignObject style="overflow: visible; text-align: left;" pointer-events="none" width="100%" height="100%" requiredFeatures="http://www.w3.org/TR/SVG11/feature#Extensibility"><html:div style="display: flex; align-items: unsafe center; justify-content: unsafe flex-start; width: 1298px; height: 1px; padding-top: 77px; margin-left: 56px;"><html:div style="box-sizing: border-box; font-size: 0; text-align: left; color: #232F3E; "><html:div style="display: inline-block; font-size: 32px; font-family: Arial; color: light-dark(#232F3E, #bdc7d4); line-height: 1.2; pointer-events: all; font-weight: bold; white-space: normal; word-wrap: normal; ">Glider on AWS</html:div></html:div></html:div></foreignObject><text x="56" y="87" fill="#232F3E" font-family="Arial" font-size="32px" font-weight="bold" style="fill: light-dark(rgb(35, 47, 62), rgb(189, 199, 212));">Glider on AWS</text></switch></g></g></g><g data-cell-id="subtitle"><g><rect x="54" y="106" width="1420" height="30" fill="none" stroke="none" pointer-events="all" /></g><g><g><switch><foreignObject style="overflow: visible; text-align: left;" pointer-events="none" width="100%" height="100%" requiredFeatures="http://www.w3.org/TR/SVG11/feature#Extensibility"><html:div style="display: flex; align-items: unsafe center; justify-content: unsafe flex-start; width: 1418px; height: 1px; padding-top: 121px; margin-left: 56px;"><html:div style="box-sizing: border-box; font-size: 0; text-align: left; color: #526170; "><html:div style="display: inline-block; font-size: 16px; font-family: Arial; color: light-dark(#526170, #919eab); line-height: 1.2; pointer-events: all; white-space: normal; word-wrap: normal; ">Illustrative deployment topology · infrastructure and TLS are provisioned by the operator</html:div></html:div></html:div></foreignObject><text x="56" y="126" fill="#526170" font-family="Arial" font-size="16px" style="fill: light-dark(rgb(82, 97, 112), rgb(145, 158, 171));">Illustrative deployment topology · infrastructure and TLS are provisioned by the operator</text></switch></g></g></g><g data-cell-id="cloud-border"><g><rect x="290" y="164" width="1250" height="555" rx="16.65" ry="16.65" fill="#ffffff" stroke="#ff9900" stroke-width="2" pointer-events="all" style="fill: light-dark(rgb(255, 255, 255), rgb(18, 18, 18)); stroke: light-dark(rgb(255, 153, 0), rgb(175, 87, 0));" /></g></g><g data-cell-id="cloud-icon"><g><svg x="310" y="183" width="34" height="34" viewBox="0 0 40 40" version="1.1"><title>Icon-Architecture-Group/32/AWS-Cloud_32</title>
    <g id="Icon-Architecture-Group/32/AWS-Cloud_32" stroke="none" stroke-width="1" fill="none" fill-rule="evenodd">
        <rect id="Rectangle" fill="#242F3E" x="0" y="0" width="40" height="40" />
        <path d="M28.993,27.9952689 L11.487,27.9762689 C9.121,27.9742689 7.154,26.1292689 7.012,23.7752689 C7.004,23.6522689 7,23.5262689 7,23.3972689 C7,20.2992689 9.091,19.2872689 10.337,18.9592689 C10.577,18.8962689 10.735,18.6662689 10.707,18.4192689 C10.676,18.1492689 10.659,17.8752689 10.659,17.5962689 C10.659,15.1322689 12.308,12.4822689 14.415,11.5632689 C15.359,11.1502689 16.232,10.9862689 17.023,10.9862689 C19.276,10.9862689 20.867,12.3152689 21.561,13.0332689 C22.329,13.8262689 22.927,14.8382689 23.34,16.0422689 C23.4,16.2192689 23.555,16.3472689 23.74,16.3742689 C23.918,16.4012689 24.109,16.3232689 24.219,16.1712689 C24.807,15.3502689 25.766,14.9822689 26.659,15.2392689 C27.782,15.5602689 28.516,16.7272689 28.62,18.3072689 C28.578,18.5762689 28.759,18.8292689 29.027,18.8772689 C30.222,19.0892689 33,19.9572689 33,23.4402689 C33,27.5892689 29.114,27.9822689 28.993,27.9952689 M29.594,17.9742689 C29.379,16.0672689 28.4,14.6962689 26.934,14.2782689 C25.899,13.9822689 24.811,14.2452689 23.989,14.9502689 C23.553,13.9362689 22.979,13.0602689 22.28,12.3382689 C20.023,10.0052689 16.933,9.37226889 14.014,10.6462689 C11.531,11.7302689 9.659,14.7182689 9.659,17.5962689 C9.659,17.7702689 9.665,17.9432689 9.676,18.1142689 C8.319,18.5732689 6,19.8752689 6,23.3972689 C6,23.5492689 6.004,23.6962689 6.014,23.8382689 C6.188,26.7162689 8.593,28.9732689 11.486,28.9762689 L29.034,28.9932689 C29.084,28.9892689 34,28.5192689 34,23.4402689 C34,19.5022689 31.003,18.3142689 29.594,17.9742689" id="Fill-1" fill="#FFFFFF" />
    </g>
</svg></g></g><g data-cell-id="cloud-title"><g><rect x="356" y="185" width="260" height="32" fill="none" stroke="none" pointer-events="all" /></g><g><g><switch><foreignObject style="overflow: visible; text-align: left;" pointer-events="none" width="100%" height="100%" requiredFeatures="http://www.w3.org/TR/SVG11/feature#Extensibility"><html:div style="display: flex; align-items: unsafe center; justify-content: unsafe flex-start; width: 258px; height: 1px; padding-top: 201px; margin-left: 358px;"><html:div style="box-sizing: border-box; font-size: 0; text-align: left; color: #232F3E; "><html:div style="display: inline-block; font-size: 20px; font-family: Arial; color: light-dark(#232F3E, #bdc7d4); line-height: 1.2; pointer-events: all; font-weight: bold; white-space: normal; word-wrap: normal; ">AWS Cloud</html:div></html:div></html:div></foreignObject><text x="358" y="207" fill="#232F3E" font-family="Arial" font-size="20px" font-weight="bold" style="fill: light-dark(rgb(35, 47, 62), rgb(189, 199, 212));">AWS Cloud</text></switch></g></g></g><g data-cell-id="region-border"><g><rect x="318" y="240" width="1185" height="440" rx="13.2" ry="13.2" fill="#ffffff" stroke="#909ba6" stroke-width="1.5" pointer-events="all" style="fill: light-dark(rgb(255, 255, 255), rgb(18, 18, 18)); stroke: light-dark(rgb(144, 155, 166), rgb(97, 106, 116));" /></g></g><g data-cell-id="region-title"><g><rect x="342" y="250" width="220" height="30" fill="none" stroke="none" pointer-events="all" /></g><g><g><switch><foreignObject style="overflow: visible; text-align: left;" pointer-events="none" width="100%" height="100%" requiredFeatures="http://www.w3.org/TR/SVG11/feature#Extensibility"><html:div style="display: flex; align-items: unsafe center; justify-content: unsafe flex-start; width: 218px; height: 1px; padding-top: 265px; margin-left: 344px;"><html:div style="box-sizing: border-box; font-size: 0; text-align: left; color: #34495E; "><html:div style="display: inline-block; font-size: 18px; font-family: Arial; color: light-dark(#34495E, #a1b3c5); line-height: 1.2; pointer-events: all; font-weight: bold; white-space: normal; word-wrap: normal; ">AWS Region</html:div></html:div></html:div></foreignObject><text x="344" y="270" fill="#34495E" font-family="Arial" font-size="18px" font-weight="bold" style="fill: light-dark(rgb(52, 73, 94), rgb(161, 179, 197));">AWS Region</text></switch></g></g></g><g data-cell-id="vpc-border"><g><rect x="350" y="303" width="825" height="330" rx="9.9" ry="9.9" fill="#fefcff" stroke="#8c4fff" stroke-width="2" pointer-events="all" style="fill: light-dark(rgb(254, 252, 255), rgb(20, 19, 21)); stroke: light-dark(rgb(140, 79, 255), rgb(177, 125, 255));" /></g></g><g data-cell-id="vpc-icon"><g><svg x="370" y="317" width="36" height="36" viewBox="0 0 40 40" version="1.1"><title>Icon-Architecture-Group/32/Virtual-private-cloud-VPC_32</title>
    <g id="Icon-Architecture-Group/32/Virtual-private-cloud-VPC_32" stroke="none" stroke-width="1" fill="none" fill-rule="evenodd">
        <rect id="Rectangle" fill="#8C4FFF" x="0" y="0" width="40" height="40" />
        <path d="M30.9707,21.0293596 L28.0267,19.7663596 L28.0267,30.2553596 C30.5717,29.9033596 30.9587,27.2873596 30.9747,27.1683596 L30.9707,21.0293596 Z M27.0267,30.2693596 L27.0267,19.7593596 L23.9917,21.0323596 L23.9917,27.2333596 C24.0047,27.2873596 24.4367,30.0003596 27.0267,30.2693596 L27.0267,30.2693596 Z M27.3327,18.5473596 C27.4567,18.4943596 27.5987,18.4953596 27.7237,18.5483596 L31.6677,20.2403596 C31.8517,20.3193596 31.9707,20.4993596 31.9707,20.6993596 L31.9707,27.2333596 C31.7877,28.6803596 30.6137,31.2963596 27.4437,31.2963596 C24.3687,31.2963596 23.1897,28.6843596 22.9957,27.3023596 L22.9917,20.6993596 C22.9917,20.4983596 23.1127,20.3163596 23.2977,20.2383596 L27.3327,18.5473596 Z M32.9827022,19.1843596 L27.5217,16.7783596 L21.9917,19.1053596 L21.9917,26.2333596 C21.9907,26.2753596 21.9377,29.1013596 23.6487,30.8563596 C24.5657,31.7973596 25.8427,32.2753596 27.4437,32.2753596 C29.0457,32.2753596 30.3307,31.7963596 31.2627,30.8533596 C32.9977,29.0953596 32.9827022,26.2683596 32.9827022,26.2403596 L32.9827022,19.1843596 Z M31.9797,31.5503596 C30.8527,32.6943596 29.3257,33.2753596 27.4437,33.2753596 C25.5597,33.2753596 24.0397,32.6943596 22.9267,31.5483596 C20.9217,29.4853596 20.9877,26.3513596 20.9917,26.2193596 L20.9917,18.7733596 C20.9917,18.5723596 21.1117,18.3903596 21.2967,18.3123596 L27.3317,15.7723596 C27.4587,15.7203596 27.6027,15.7193596 27.7277,15.7763596 L33.6837,18.4013596 C33.8657,18.4813596 33.9827,18.6603596 33.9827,18.8583596 L33.9827,26.2333596 C33.9847,26.3583596 34.0097,29.4883596 31.9797,31.5503596 L31.9797,31.5503596 Z M10.9917,24.2363596 L18.9917,24.2363596 L18.9917,25.2363596 L10.9917,25.2363596 C8.1807,25.2363596 6.1807,23.2203596 6.0127,20.2203596 C6.0007,20.1093596 5.9997,19.9753596 5.9997,19.8413596 C5.9997,17.3323596 7.3177,15.6183596 9.8167,14.8623596 C9.7977,14.6353596 9.7847,14.3963596 9.7847,14.2153596 C9.7847,11.2993596 11.3617,8.77035958 13.8017,7.77035958 C17.0997,6.42235958 20.8437,6.87635958 22.9077,8.87435958 C23.6527,9.59835958 24.2317,10.4163596 24.6677,11.3593596 C25.2767,10.9093596 26.0677,10.6983596 27.0167,10.7453596 C28.7967,10.8353596 30.1657,12.4583596 30.4497,14.7523596 C31.9477,14.8763596 32.9347,15.6353596 33.4597,17.0603596 L32.5227,17.4063596 C32.0947,16.2493596 31.3147,15.7333596 29.9917,15.7333596 C29.7267,15.7333596 29.5077,15.5273596 29.4917,15.2633596 C29.3537,12.9253596 28.0857,11.8003596 26.9657,11.7443596 C26.0207,11.6913596 25.3207,11.9633596 24.8867,12.5353596 C24.7757,12.6803596 24.6017,12.7523596 24.4137,12.7283596 C24.2337,12.7003596 24.0817,12.5773596 24.0187,12.4053596 C23.6147,11.3023596 23.0237,10.3823596 22.2117,9.59135958 C20.4237,7.86135958 17.1217,7.49235958 14.1807,8.69635958 C12.1177,9.54135958 10.7847,11.7073596 10.7847,14.2153596 C10.7847,14.4883596 10.8197,14.9113596 10.8507,15.1743596 C10.8807,15.4253596 10.7197,15.6583596 10.4747,15.7183596 C8.1687,16.2903596 6.9997,17.6773596 6.9997,19.8413596 C6.9997,19.9423596 6.9987,20.0423596 7.0087,20.1433596 C7.1497,22.6383596 8.7117,24.2363596 10.9917,24.2363596 L10.9917,24.2363596 Z" id="Fill-1" fill="#FFFFFF" />
    </g>
</svg></g></g><g data-cell-id="vpc-title"><g><rect x="418" y="319" width="260" height="30" fill="none" stroke="none" pointer-events="all" /></g><g><g><switch><foreignObject style="overflow: visible; text-align: left;" pointer-events="none" width="100%" height="100%" requiredFeatures="http://www.w3.org/TR/SVG11/feature#Extensibility"><html:div style="display: flex; align-items: unsafe center; justify-content: unsafe flex-start; width: 258px; height: 1px; padding-top: 334px; margin-left: 420px;"><html:div style="box-sizing: border-box; font-size: 0; text-align: left; color: #5634A4; "><html:div style="display: inline-block; font-size: 18px; font-family: Arial; color: light-dark(#5634A4, #c3a6ff); line-height: 1.2; pointer-events: all; font-weight: bold; white-space: normal; word-wrap: normal; ">Amazon VPC</html:div></html:div></html:div></foreignObject><text x="420" y="339" fill="#5634A4" font-family="Arial" font-size="18px" font-weight="bold" style="fill: light-dark(rgb(86, 52, 164), rgb(195, 166, 255));">Amazon VPC</text></switch></g></g></g><g data-cell-id="public-subnet"><g><rect x="385" y="373" width="250" height="250" rx="7.5" ry="7.5" fill="#fbfdf8" stroke="#7aa116" stroke-width="1.5" pointer-events="all" style="fill: light-dark(rgb(251, 253, 248), rgb(20, 21, 17)); stroke: light-dark(rgb(122, 161, 22), rgb(97, 130, 11));" /></g></g><g data-cell-id="public-title"><g><rect x="401" y="382" width="224" height="28" fill="none" stroke="none" pointer-events="all" /></g><g><g><switch><foreignObject style="overflow: visible; text-align: left;" pointer-events="none" width="100%" height="100%" requiredFeatures="http://www.w3.org/TR/SVG11/feature#Extensibility"><html:div style="display: flex; align-items: unsafe center; justify-content: unsafe flex-start; width: 222px; height: 1px; padding-top: 396px; margin-left: 403px;"><html:div style="box-sizing: border-box; font-size: 0; text-align: left; color: #456611; "><html:div style="display: inline-block; font-size: 15px; font-family: Arial; color: light-dark(#456611, #8fac62); line-height: 1.2; pointer-events: all; font-weight: bold; white-space: normal; word-wrap: normal; ">Public subnets · 2 AZs</html:div></html:div></html:div></foreignObject><text x="403" y="401" fill="#456611" font-family="Arial" font-size="15px" font-weight="bold" style="fill: light-dark(rgb(69, 102, 17), rgb(143, 172, 98));">Public subnets · 2 AZs</text></switch></g></g></g><g data-cell-id="private-subnet"><g><rect x="670" y="373" width="340" height="250" rx="7.5" ry="7.5" fill="#fbfdf8" stroke="#7aa116" stroke-width="1.5" pointer-events="all" style="fill: light-dark(rgb(251, 253, 248), rgb(20, 21, 17)); stroke: light-dark(rgb(122, 161, 22), rgb(97, 130, 11));" /></g></g><g data-cell-id="private-title"><g><rect x="686" y="382" width="314" height="28" fill="none" stroke="none" pointer-events="all" /></g><g><g><switch><foreignObject style="overflow: visible; text-align: left;" pointer-events="none" width="100%" height="100%" requiredFeatures="http://www.w3.org/TR/SVG11/feature#Extensibility"><html:div style="display: flex; align-items: unsafe center; justify-content: unsafe flex-start; width: 312px; height: 1px; padding-top: 396px; margin-left: 688px;"><html:div style="box-sizing: border-box; font-size: 0; text-align: left; color: #456611; "><html:div style="display: inline-block; font-size: 15px; font-family: Arial; color: light-dark(#456611, #8fac62); line-height: 1.2; pointer-events: all; font-weight: bold; white-space: normal; word-wrap: normal; ">Private subnet · 1 AZ</html:div></html:div></html:div></foreignObject><text x="688" y="401" fill="#456611" font-family="Arial" font-size="15px" font-weight="bold" style="fill: light-dark(rgb(69, 102, 17), rgb(143, 172, 98));">Private subnet · 1 AZ</text></switch></g></g></g><g data-cell-id="s3-zone"><g transform="translate(0.5,0.5)"><rect x="1213" y="339" width="254" height="268" rx="7.62" ry="7.62" fill="#fbfdf8" stroke="#b4c98d" stroke-width="1.3" pointer-events="all" style="fill: light-dark(rgb(251, 253, 248), rgb(20, 21, 17)); stroke: light-dark(rgb(180, 201, 141), rgb(61, 79, 27));" /></g></g><g data-cell-id="s3-zone-label"><g><rect x="1234" y="353" width="212" height="24" fill="none" stroke="none" pointer-events="all" /></g><g><g><switch><foreignObject style="overflow: visible; text-align: left;" pointer-events="none" width="100%" height="100%" requiredFeatures="http://www.w3.org/TR/SVG11/feature#Extensibility"><html:div style="display: flex; align-items: unsafe center; justify-content: unsafe center; width: 210px; height: 1px; padding-top: 365px; margin-left: 1235px;"><html:div style="box-sizing: border-box; font-size: 0; text-align: center; color: #638317; "><html:div style="display: inline-block; font-size: 12px; font-family: Arial; color: light-dark(#638317, #799538); line-height: 1.2; pointer-events: all; font-weight: bold; white-space: normal; word-wrap: normal; ">DURABLE DATA</html:div></html:div></html:div></foreignObject><text x="1340" y="369" fill="#638317" font-family="Arial" font-size="12px" text-anchor="middle" font-weight="bold" style="fill: light-dark(rgb(99, 131, 23), rgb(121, 149, 56));">DURABLE DATA</text></switch></g></g></g><g data-cell-id="client-alb"><g><path d="M 194 481 L 461.76 481" fill="none" stroke="#607383" stroke-width="2" stroke-miterlimit="10" pointer-events="stroke" style="stroke: light-dark(rgb(96, 115, 131), rgb(126, 143, 157));" /><path d="M 469.76 481 L 461.76 485 L 461.76 477 Z" fill="#607383" stroke="#607383" stroke-width="2" stroke-miterlimit="10" pointer-events="all" style="fill: light-dark(rgb(96, 115, 131), rgb(126, 143, 157)); stroke: light-dark(rgb(96, 115, 131), rgb(126, 143, 157));" /></g></g><g data-cell-id="alb-ec2"><g><path d="M 556 481 L 740.76 481" fill="none" stroke="#607383" stroke-width="2" stroke-miterlimit="10" pointer-events="stroke" style="stroke: light-dark(rgb(96, 115, 131), rgb(126, 143, 157));" /><path d="M 748.76 481 L 740.76 485 L 740.76 477 Z" fill="#607383" stroke="#607383" stroke-width="2" stroke-miterlimit="10" pointer-events="all" style="fill: light-dark(rgb(96, 115, 131), rgb(126, 143, 157)); stroke: light-dark(rgb(96, 115, 131), rgb(126, 143, 157));" /></g></g><g data-cell-id="ec2-endpoint"><g><path d="M 835 481 L 1059.76 481" fill="none" stroke="#607383" stroke-width="2" stroke-miterlimit="10" pointer-events="stroke" style="stroke: light-dark(rgb(96, 115, 131), rgb(126, 143, 157));" /><path d="M 1067.76 481 L 1059.76 485 L 1059.76 477 Z" fill="#607383" stroke="#607383" stroke-width="2" stroke-miterlimit="10" pointer-events="all" style="fill: light-dark(rgb(96, 115, 131), rgb(126, 143, 157)); stroke: light-dark(rgb(96, 115, 131), rgb(126, 143, 157));" /></g></g><g data-cell-id="endpoint-s3"><g><path d="M 1130 481 L 1269.76 481" fill="none" stroke="#607383" stroke-width="2" stroke-miterlimit="10" pointer-events="stroke" style="stroke: light-dark(rgb(96, 115, 131), rgb(126, 143, 157));" /><path d="M 1277.76 481 L 1269.76 485 L 1269.76 477 Z" fill="#607383" stroke="#607383" stroke-width="2" stroke-miterlimit="10" pointer-events="all" style="fill: light-dark(rgb(96, 115, 131), rgb(126, 143, 157)); stroke: light-dark(rgb(96, 115, 131), rgb(126, 143, 157));" /></g></g><g data-cell-id="ec2-ebs"><g><path d="M 835 508 L 884 508 L 884 562 L 893.76 562" fill="none" stroke="#82909b" stroke-width="2" stroke-miterlimit="10" stroke-dasharray="6 6" pointer-events="stroke" style="stroke: light-dark(rgb(130, 144, 155), rgb(105, 117, 126));" /><path d="M 901.76 562 L 893.76 566 L 893.76 558 Z" fill="#82909b" stroke="#82909b" stroke-width="2" stroke-miterlimit="10" pointer-events="all" style="fill: light-dark(rgb(130, 144, 155), rgb(105, 117, 126)); stroke: light-dark(rgb(130, 144, 155), rgb(105, 117, 126));" /></g></g><g data-cell-id="https-label"><g><rect x="261" y="447" width="100" height="22" fill="none" stroke="none" pointer-events="all" /></g><g><g><switch><foreignObject style="overflow: visible; text-align: left;" pointer-events="none" width="100%" height="100%" requiredFeatures="http://www.w3.org/TR/SVG11/feature#Extensibility"><html:div style="display: flex; align-items: unsafe center; justify-content: unsafe center; width: 98px; height: 1px; padding-top: 458px; margin-left: 262px;"><html:div style="box-sizing: border-box; font-size: 0; text-align: center; color: #526170; "><html:div style="display: inline-block; font-size: 13px; font-family: Arial; color: light-dark(#526170, #919eab); line-height: 1.2; pointer-events: all; font-weight: bold; white-space: normal; word-wrap: normal; ">HTTPS</html:div></html:div></html:div></foreignObject><text x="311" y="462" fill="#526170" font-family="Arial" font-size="13px" text-anchor="middle" font-weight="bold" style="fill: light-dark(rgb(82, 97, 112), rgb(145, 158, 171));">HTTPS</text></switch></g></g></g><g data-cell-id="http-label"><g><rect x="577" y="447" width="162" height="22" fill="none" stroke="none" pointer-events="all" /></g><g><g><switch><foreignObject style="overflow: visible; text-align: left;" pointer-events="none" width="100%" height="100%" requiredFeatures="http://www.w3.org/TR/SVG11/feature#Extensibility"><html:div style="display: flex; align-items: unsafe center; justify-content: unsafe center; width: 160px; height: 1px; padding-top: 458px; margin-left: 578px;"><html:div style="box-sizing: border-box; font-size: 0; text-align: center; color: #526170; "><html:div style="display: inline-block; font-size: 13px; font-family: Arial; color: light-dark(#526170, #919eab); line-height: 1.2; pointer-events: all; font-weight: bold; white-space: normal; word-wrap: normal; ">HTTP inside VPC</html:div></html:div></html:div></foreignObject><text x="658" y="462" fill="#526170" font-family="Arial" font-size="13px" text-anchor="middle" font-weight="bold" style="fill: light-dark(rgb(82, 97, 112), rgb(145, 158, 171));">HTTP inside VPC</text></switch></g></g></g><g data-cell-id="s3api-label"><g><rect x="919" y="447" width="100" height="22" fill="none" stroke="none" pointer-events="all" /></g><g><g><switch><foreignObject style="overflow: visible; text-align: left;" pointer-events="none" width="100%" height="100%" requiredFeatures="http://www.w3.org/TR/SVG11/feature#Extensibility"><html:div style="display: flex; align-items: unsafe center; justify-content: unsafe center; width: 98px; height: 1px; padding-top: 458px; margin-left: 920px;"><html:div style="box-sizing: border-box; font-size: 0; text-align: center; color: #526170; "><html:div style="display: inline-block; font-size: 13px; font-family: Arial; color: light-dark(#526170, #919eab); line-height: 1.2; pointer-events: all; font-weight: bold; white-space: normal; word-wrap: normal; ">S3 API</html:div></html:div></html:div></foreignObject><text x="969" y="462" fill="#526170" font-family="Arial" font-size="13px" text-anchor="middle" font-weight="bold" style="fill: light-dark(rgb(82, 97, 112), rgb(145, 158, 171));">S3 API</text></switch></g></g></g><g data-cell-id="gateway-label"><g><rect x="1056" y="535" width="134" height="22" fill="none" stroke="none" pointer-events="all" /></g><g><g><switch><foreignObject style="overflow: visible; text-align: left;" pointer-events="none" width="100%" height="100%" requiredFeatures="http://www.w3.org/TR/SVG11/feature#Extensibility"><html:div style="display: flex; align-items: unsafe center; justify-content: unsafe center; width: 132px; height: 1px; padding-top: 546px; margin-left: 1057px;"><html:div style="box-sizing: border-box; font-size: 0; text-align: center; color: #657380; "><html:div style="display: inline-block; font-size: 12px; font-family: Arial; color: light-dark(#657380, #828e99); line-height: 1.2; pointer-events: all; white-space: normal; word-wrap: normal; ">Gateway endpoint</html:div></html:div></html:div></foreignObject><text x="1123" y="550" fill="#657380" font-family="Arial" font-size="12px" text-anchor="middle" style="fill: light-dark(rgb(101, 115, 128), rgb(130, 142, 153));">Gateway endpoint</text></switch></g></g></g><g data-cell-id="client-icon"><g><svg x="91" y="438" width="75" height="75" viewBox="0 0 24 24" class="lucide lucide-monitor" fill="none" stroke="#232F3E" stroke-width="2" stroke-linecap="round" stroke-linejoin="round"><rect width="20" height="14" x="2" y="3" rx="2" />
  <line x1="8" x2="16" y1="21" y2="21" />
  <line x1="12" x2="12" y1="17" y2="21" />
</svg></g></g><g data-cell-id="client-label"><g><rect x="54" y="519" width="148" height="28" fill="none" stroke="none" pointer-events="all" /></g><g><g><switch><foreignObject style="overflow: visible; text-align: left;" pointer-events="none" width="100%" height="100%" requiredFeatures="http://www.w3.org/TR/SVG11/feature#Extensibility"><html:div style="display: flex; align-items: unsafe center; justify-content: unsafe center; width: 146px; height: 1px; padding-top: 533px; margin-left: 55px;"><html:div style="box-sizing: border-box; font-size: 0; text-align: center; color: #232F3E; "><html:div style="display: inline-block; font-size: 17px; font-family: Arial; color: light-dark(#232F3E, #bdc7d4); line-height: 1.2; pointer-events: all; font-weight: bold; white-space: normal; word-wrap: normal; ">Applications</html:div></html:div></html:div></foreignObject><text x="128" y="538" fill="#232F3E" font-family="Arial" font-size="17px" text-anchor="middle" font-weight="bold" style="fill: light-dark(rgb(35, 47, 62), rgb(189, 199, 212));">Applications</text></switch></g></g></g><g data-cell-id="client-sub"><g><rect x="54" y="547" width="148" height="24" fill="none" stroke="none" pointer-events="all" /></g><g><g><switch><foreignObject style="overflow: visible; text-align: left;" pointer-events="none" width="100%" height="100%" requiredFeatures="http://www.w3.org/TR/SVG11/feature#Extensibility"><html:div style="display: flex; align-items: unsafe center; justify-content: unsafe center; width: 146px; height: 1px; padding-top: 559px; margin-left: 55px;"><html:div style="box-sizing: border-box; font-size: 0; text-align: center; color: #607180; "><html:div style="display: inline-block; font-size: 13px; font-family: Arial; color: light-dark(#607180, #82919e); line-height: 1.2; pointer-events: all; white-space: normal; word-wrap: normal; ">HTTPS clients</html:div></html:div></html:div></foreignObject><text x="128" y="563" fill="#607180" font-family="Arial" font-size="13px" text-anchor="middle" style="fill: light-dark(rgb(96, 113, 128), rgb(130, 145, 158));">HTTPS clients</text></switch></g></g></g><g data-cell-id="alb-icon"><g><svg x="480" y="449" width="68" height="68" viewBox="0 0 48 48" version="1.1"><title>Icon-Resource/Networking-and-Content-Delivery/Res_Elastic-Load-Balancing_Application-Load-Balancer_48</title>
    <g id="Icon-Resource/Networking-and-Content-Delivery/Res_Elastic-Load-Balancing_Application-Load-Balancer_48" stroke="none" stroke-width="1" fill="none" fill-rule="evenodd">
        <path d="M33.69,34.375 L36.035,34.375 L36.035,32 L33.69,32 L33.69,34.375 Z M26.751,34.375 L29.126,34.375 L29.126,32 L26.751,32 L26.751,34.375 Z M18.876,34.375 L21.251,34.375 L21.251,32 L18.876,32 L18.876,34.375 Z M11.966,34.375 L14.251,34.375 L14.251,32 L11.966,32 L11.966,34.375 Z M18.001,16.875 L30.001,16.875 L30.001,11 L18.001,11 L18.001,16.875 Z M37.035,30 L35.501,30 L35.501,26.625 C35.501,26.072 35.053,25.625 34.501,25.625 L32.001,25.625 L32.001,22.25 C32.001,21.697 31.553,21.25 31.001,21.25 L25.001,21.25 L25.001,18.875 L31.001,18.875 C31.553,18.875 32.001,18.428 32.001,17.875 L32.001,10 C32.001,9.447 31.553,9 31.001,9 L17.001,9 C16.448,9 16.001,9.447 16.001,10 L16.001,17.875 C16.001,18.428 16.448,18.875 17.001,18.875 L23.001,18.875 L23.001,21.25 L17.001,21.25 C16.448,21.25 16.001,21.697 16.001,22.25 L16.001,25.625 L13.501,25.625 C12.948,25.625 12.501,26.072 12.501,26.625 L12.501,30 L10.965,30 C10.413,30 9.965,30.447 9.965,31 L9.965,35.375 C9.965,35.928 10.413,36.375 10.965,36.375 L15.251,36.375 C15.803,36.375 16.251,35.928 16.251,35.375 L16.251,31 C16.251,30.447 15.803,30 15.251,30 L14.501,30 L14.501,27.625 L18.626,27.625 L18.626,30 L17.876,30 C17.323,30 16.876,30.447 16.876,31 L16.876,35.375 C16.876,35.928 17.323,36.375 17.876,36.375 L22.251,36.375 C22.803,36.375 23.251,35.928 23.251,35.375 L23.251,31 C23.251,30.447 22.803,30 22.251,30 L20.626,30 L20.626,26.625 C20.626,26.072 20.178,25.625 19.626,25.625 L18.001,25.625 L18.001,23.25 L30.001,23.25 L30.001,25.625 L28.376,25.625 C27.823,25.625 27.376,26.072 27.376,26.625 L27.376,30 L25.751,30 C25.198,30 24.751,30.447 24.751,31 L24.751,35.375 C24.751,35.928 25.198,36.375 25.751,36.375 L30.126,36.375 C30.678,36.375 31.126,35.928 31.126,35.375 L31.126,31 C31.126,30.447 30.678,30 30.126,30 L29.376,30 L29.376,27.625 L33.501,27.625 L33.501,30 L32.69,30 C32.137,30 31.69,30.447 31.69,31 L31.69,35.375 C31.69,35.928 32.137,36.375 32.69,36.375 L37.035,36.375 C37.587,36.375 38.035,35.928 38.035,35.375 L38.035,31 C38.035,30.447 37.587,30 37.035,30 L37.035,30 Z M24.001,44 C12.972,44 4,35.028 4,24 C4,12.972 12.972,4 24.001,4 C35.029,4 44.001,12.972 44.001,24 C44.001,35.028 35.029,44 24.001,44 L24.001,44 Z M24.001,2 C11.869,2 2,11.869 2,24 C2,36.131 11.869,46 24.001,46 C36.131,46 46.001,36.131 46.001,24 C46.001,11.869 36.131,2 24.001,2 L24.001,2 Z" id="AWS-Elastic-Load-Balancing_-Application-Load-Balancer_Resource-Icon_light-bg" fill="#8C4FFF" />
    </g>
</svg></g></g><g data-cell-id="alb-label"><g><rect x="405" y="522" width="224" height="23" fill="none" stroke="none" pointer-events="all" /></g><g><g><switch><foreignObject style="overflow: visible; text-align: left;" pointer-events="none" width="100%" height="100%" requiredFeatures="http://www.w3.org/TR/SVG11/feature#Extensibility"><html:div style="display: flex; align-items: unsafe center; justify-content: unsafe center; width: 222px; height: 1px; padding-top: 534px; margin-left: 406px;"><html:div style="box-sizing: border-box; font-size: 0; text-align: center; color: #232F3E; "><html:div style="display: inline-block; font-size: 16px; font-family: Arial; color: light-dark(#232F3E, #bdc7d4); line-height: 1.2; pointer-events: all; font-weight: bold; white-space: normal; word-wrap: normal; ">Application Load</html:div></html:div></html:div></foreignObject><text x="517" y="538" fill="#232F3E" font-family="Arial" font-size="16px" text-anchor="middle" font-weight="bold" style="fill: light-dark(rgb(35, 47, 62), rgb(189, 199, 212));">Application Load</text></switch></g></g></g><g data-cell-id="alb-label2"><g><rect x="405" y="545" width="224" height="22" fill="none" stroke="none" pointer-events="all" /></g><g><g><switch><foreignObject style="overflow: visible; text-align: left;" pointer-events="none" width="100%" height="100%" requiredFeatures="http://www.w3.org/TR/SVG11/feature#Extensibility"><html:div style="display: flex; align-items: unsafe center; justify-content: unsafe center; width: 222px; height: 1px; padding-top: 556px; margin-left: 406px;"><html:div style="box-sizing: border-box; font-size: 0; text-align: center; color: #232F3E; "><html:div style="display: inline-block; font-size: 16px; font-family: Arial; color: light-dark(#232F3E, #bdc7d4); line-height: 1.2; pointer-events: all; font-weight: bold; white-space: normal; word-wrap: normal; ">Balancer</html:div></html:div></html:div></foreignObject><text x="517" y="561" fill="#232F3E" font-family="Arial" font-size="16px" text-anchor="middle" font-weight="bold" style="fill: light-dark(rgb(35, 47, 62), rgb(189, 199, 212));">Balancer</text></switch></g></g></g><g data-cell-id="alb-sub"><g><rect x="405" y="570" width="224" height="20" fill="none" stroke="none" pointer-events="all" /></g><g><g><switch><foreignObject style="overflow: visible; text-align: left;" pointer-events="none" width="100%" height="100%" requiredFeatures="http://www.w3.org/TR/SVG11/feature#Extensibility"><html:div style="display: flex; align-items: unsafe center; justify-content: unsafe center; width: 222px; height: 1px; padding-top: 580px; margin-left: 406px;"><html:div style="box-sizing: border-box; font-size: 0; text-align: center; color: #607180; "><html:div style="display: inline-block; font-size: 13px; font-family: Arial; color: light-dark(#607180, #82919e); line-height: 1.2; pointer-events: all; white-space: normal; word-wrap: normal; ">TLS termination</html:div></html:div></html:div></foreignObject><text x="517" y="584" fill="#607180" font-family="Arial" font-size="13px" text-anchor="middle" style="fill: light-dark(rgb(96, 113, 128), rgb(130, 145, 158));">TLS termination</text></switch></g></g></g><g data-cell-id="ec2-icon"><g><svg x="755" y="440" width="80" height="80" viewBox="0 0 80 80" version="1.1"><title>Icon-Architecture/64/Arch_Amazon-EC2_64</title>
    <g id="Icon-Architecture/64/Arch_Amazon-EC2_64" stroke="none" stroke-width="1" fill="none" fill-rule="evenodd">
        <g id="Icon-Architecture-BG/64/Compute" fill="#ED7100">
            <rect id="Rectangle" x="0" y="0" width="80" height="80" />
        </g>
        <path d="M27,53 L52,53 L52,28 L27,28 L27,53 Z M54,28 L58,28 L58,30 L54,30 L54,34 L58,34 L58,36 L54,36 L54,39 L58,39 L58,41 L54,41 L54,45 L58,45 L58,47 L54,47 L54,51 L58,51 L58,53 L54,53 L54,53.136 C54,54.164 53.164,55 52.136,55 L52,55 L52,59 L50,59 L50,55 L46,55 L46,59 L44,59 L44,55 L41,55 L41,59 L39,59 L39,55 L35,55 L35,59 L33,59 L33,55 L29,55 L29,59 L27,59 L27,55 L26.864,55 C25.836,55 25,54.164 25,53.136 L25,53 L22,53 L22,51 L25,51 L25,47 L22,47 L22,45 L25,45 L25,41 L22,41 L22,39 L25,39 L25,36 L22,36 L22,34 L25,34 L25,30 L22,30 L22,28 L25,28 L25,27.864 C25,26.836 25.836,26 26.864,26 L27,26 L27,22 L29,22 L29,26 L33,26 L33,22 L35,22 L35,26 L39,26 L39,22 L41,22 L41,26 L44,26 L44,22 L46,22 L46,26 L50,26 L50,22 L52,22 L52,26 L52.136,26 C53.164,26 54,26.836 54,27.864 L54,28 Z M41,65.876 C41,65.944 40.944,66 40.876,66 L14.124,66 C14.056,66 14,65.944 14,65.876 L14,39.124 C14,39.056 14.056,39 14.124,39 L20,39 L20,37 L14.124,37 C12.953,37 12,37.953 12,39.124 L12,65.876 C12,67.047 12.953,68 14.124,68 L40.876,68 C42.047,68 43,67.047 43,65.876 L43,61 L41,61 L41,65.876 Z M68,14.124 L68,40.876 C68,42.047 67.047,43 65.876,43 L60,43 L60,41 L65.876,41 C65.944,41 66,40.944 66,40.876 L66,14.124 C66,14.056 65.944,14 65.876,14 L39.124,14 C39.056,14 39,14.056 39,14.124 L39,20 L37,20 L37,14.124 C37,12.953 37.953,12 39.124,12 L65.876,12 C67.047,12 68,12.953 68,14.124 L68,14.124 Z" id="Amazon-EC2_Icon_64_Squid" fill="#FFFFFF" />
    </g>
</svg></g></g><g data-cell-id="ec2-label"><g><rect x="690" y="522" width="176" height="24" fill="none" stroke="none" pointer-events="all" /></g><g><g><switch><foreignObject style="overflow: visible; text-align: left;" pointer-events="none" width="100%" height="100%" requiredFeatures="http://www.w3.org/TR/SVG11/feature#Extensibility"><html:div style="display: flex; align-items: unsafe center; justify-content: unsafe center; width: 174px; height: 1px; padding-top: 534px; margin-left: 691px;"><html:div style="box-sizing: border-box; font-size: 0; text-align: center; color: #232F3E; "><html:div style="display: inline-block; font-size: 16px; font-family: Arial; color: light-dark(#232F3E, #bdc7d4); line-height: 1.2; pointer-events: all; font-weight: bold; white-space: normal; word-wrap: normal; ">Amazon EC2</html:div></html:div></html:div></foreignObject><text x="778" y="539" fill="#232F3E" font-family="Arial" font-size="16px" text-anchor="middle" font-weight="bold" style="fill: light-dark(rgb(35, 47, 62), rgb(189, 199, 212));">Amazon EC2</text></switch></g></g></g><g data-cell-id="ec2-sub"><g><rect x="680" y="549" width="190" height="22" fill="none" stroke="none" pointer-events="all" /></g><g><g><switch><foreignObject style="overflow: visible; text-align: left;" pointer-events="none" width="100%" height="100%" requiredFeatures="http://www.w3.org/TR/SVG11/feature#Extensibility"><html:div style="display: flex; align-items: unsafe center; justify-content: unsafe center; width: 188px; height: 1px; padding-top: 560px; margin-left: 681px;"><html:div style="box-sizing: border-box; font-size: 0; text-align: center; color: #607180; "><html:div style="display: inline-block; font-size: 13px; font-family: Arial; color: light-dark(#607180, #82919e); line-height: 1.2; pointer-events: all; white-space: normal; word-wrap: normal; ">glider-server · one collection</html:div></html:div></html:div></foreignObject><text x="775" y="564" fill="#607180" font-family="Arial" font-size="13px" text-anchor="middle" style="fill: light-dark(rgb(96, 113, 128), rgb(130, 145, 158));">glider-server · one collection</text></switch></g></g></g><g data-cell-id="ebs-icon"><g><svg x="904" y="534" width="58" height="58" viewBox="0 0 80 80" version="1.1"><title>Icon-Architecture/64/Arch_Amazon-Elastic-Block-Store_64</title>
    <g id="Icon-Architecture/64/Arch_Amazon-Elastic-Block-Store_64" stroke="none" stroke-width="1" fill="none" fill-rule="evenodd">
        <g id="Icon-Architecture-BG/64/Storage" fill="#7AA116">
            <rect id="Rectangle" x="0" y="0" width="80" height="80" />
        </g>
        <path d="M66,58 L68,58 L68,68 L58,68 L58,66 L64.586,66 L56.293,57.707 L57.707,56.293 L66,64.586 L66,58 Z M23.707,57.707 L15.414,66 L22,66 L22,68 L12,68 L12,58 L14,58 L14,64.586 L22.293,56.293 L23.707,57.707 Z M68,12 L68,22 L66,22 L66,15.414 L57.707,23.707 L56.293,22.293 L64.586,14 L58,14 L58,12 L68,12 Z M15.414,14 L23.707,22.293 L22.293,23.707 L14,15.414 L14,22 L12,22 L12,12 L22,12 L22,14 L15.414,14 Z M50.678,53.661 C49.521,54.848 45.635,56.046 39.563,56.046 C32.168,56.046 28.031,54.23 28,53 L28,29.857 C30.603,31.395 35.32,32 39.563,32 C43.756,32 48.418,31.397 51,29.867 L51,53.025 C51.002,53.099 51.008,53.323 50.678,53.661 L50.678,53.661 Z M39.563,24 C45.663,24 49.545,25.181 50.686,26.352 C51.008,26.682 51.002,26.902 51,26.975 L51,27 C51,28.226 46.927,30 39.563,30 C32.422,30 28.032,28.265 28.003,27.013 C28.061,25.746 32.093,24 39.563,24 L39.563,24 Z M52.999,27 C53.007,26.482 52.858,25.716 52.118,24.956 C50.313,23.105 45.62,22 39.563,22 C33.365,22 26.094,23.303 26,27 L26,53.025 C26.095,56.731 33.365,58.046 39.563,58.046 C44.22,58.046 49.962,57.261 52.11,55.057 C52.869,54.278 53.013,53.495 53,53 L53,27.011 L53,27.004 L53,27 L52.999,27 Z" id="Amazon-Elastic-Block-Store_Icon_64_Squid" fill="#FFFFFF" />
    </g>
</svg></g></g><g data-cell-id="ebs-label"><g><rect x="888" y="592" width="88" height="22" fill="none" stroke="none" pointer-events="all" /></g><g><g><switch><foreignObject style="overflow: visible; text-align: left;" pointer-events="none" width="100%" height="100%" requiredFeatures="http://www.w3.org/TR/SVG11/feature#Extensibility"><html:div style="display: flex; align-items: unsafe center; justify-content: unsafe center; width: 86px; height: 1px; padding-top: 603px; margin-left: 889px;"><html:div style="box-sizing: border-box; font-size: 0; text-align: center; color: #526170; "><html:div style="display: inline-block; font-size: 13px; font-family: Arial; color: light-dark(#526170, #919eab); line-height: 1.2; pointer-events: all; font-weight: bold; white-space: normal; word-wrap: normal; ">EBS cache</html:div></html:div></html:div></foreignObject><text x="932" y="607" fill="#526170" font-family="Arial" font-size="13px" text-anchor="middle" font-weight="bold" style="fill: light-dark(rgb(82, 97, 112), rgb(145, 158, 171));">EBS cache</text></switch></g></g></g><g data-cell-id="endpoint-icon"><g><svg x="1069" y="451" width="61" height="61" viewBox="0 0 48 48" version="1.1"><title>Icon-Resource/Networking-and-Content-Delivery/Res_Amazon-VPC_Endpoints_48</title>
    <g id="Icon-Resource/Networking-and-Content-Delivery/Res_Amazon-VPC_Endpoints_48" stroke="none" stroke-width="1" fill="none" fill-rule="evenodd">
        <path d="M20.6197,27.6015 L22.0337,29.0155 L26.3967,24.6515 C26.7877,24.2605 26.7877,23.6275 26.3967,23.2375 L22.0337,18.8735 L20.6197,20.2885 L23.2757,22.9445 L6.4907,22.9445 L6.4907,24.9445 L23.2767,24.9445 L20.6197,27.6015 Z M43.8897,23.9445 C43.8897,12.9475 34.9417,3.9995 23.9447,3.9995 C12.9467,3.9995 3.9997,12.9475 3.9997,23.9445 C3.9997,34.9425 12.9467,43.8895 23.9447,43.8895 C34.9417,43.8895 43.8897,34.9425 43.8897,23.9445 L43.8897,23.9445 Z M45.8897,23.9445 C45.8897,36.0445 36.0457,45.8895 23.9447,45.8895 C11.8447,45.8895 1.9997,36.0445 1.9997,23.9445 C1.9997,11.8435 11.8447,1.9995 23.9447,1.9995 C36.0457,1.9995 45.8897,11.8435 45.8897,23.9445 L45.8897,23.9445 Z M15.9627,26.5625 L15.9627,27.0165 C15.9627,27.0765 15.9677,27.1355 15.9777,27.1945 C16.0417,27.5435 17.5967,35.7575 23.9447,35.7575 C30.2927,35.7575 31.8477,27.5435 31.9107,27.1945 C31.9217,27.1355 31.9267,27.0765 31.9267,27.0165 L31.9267,16.4655 C31.9267,16.0575 31.6787,15.6905 31.2997,15.5385 L24.3177,12.7275 C24.0797,12.6315 23.8097,12.6315 23.5717,12.7275 L16.5897,15.5385 C16.2107,15.6905 15.9627,16.0575 15.9627,16.4655 L15.9627,21.3265 L17.9627,21.3265 L17.9627,17.1415 L23.9447,14.7335 L29.9267,17.1415 L29.9267,26.9175 C29.7647,27.6895 28.3467,33.7575 23.9447,33.7575 C19.5427,33.7575 18.1247,27.6895 17.9627,26.9175 L17.9627,26.5625 L15.9627,26.5625 Z M35.4167,13.3245 L35.4167,26.6755 C35.4167,31.2075 33.0187,39.7805 23.9447,39.7805 C19.2227,39.7805 15.7337,37.3375 13.8537,32.7165 C12.8547,30.2675 12.5767,27.8485 12.5007,26.6245 L14.4967,26.4995 C14.5527,27.3865 14.7807,29.6945 15.7067,31.9615 C17.2767,35.8235 20.0487,37.7805 23.9447,37.7805 C33.2797,37.7805 33.4157,27.1275 33.4167,26.6745 L33.4167,13.9995 L23.9447,10.1865 L14.4727,13.9995 L14.4727,21.3265 L12.4727,21.3265 L12.4727,13.3245 C12.4727,12.9155 12.7207,12.5485 13.0987,12.3965 L23.5717,8.1805 C23.8097,8.0845 24.0797,8.0845 24.3177,8.1805 L34.7897,12.3965 C35.1687,12.5485 35.4167,12.9155 35.4167,13.3245 L35.4167,13.3245 Z" id="AWS-Amazon-VPC_Endpoints_Resource-Icon_light-bg" fill="#8C4FFF" />
    </g>
</svg></g></g><g data-cell-id="s3-icon"><g><svg x="1298" y="431" width="80" height="80" viewBox="0 0 80 80" version="1.1"><title>Icon-Architecture/64/Arch_Amazon-Simple-Storage-Service_64</title>
    <g id="Icon-Architecture/64/Arch_Amazon-Simple-Storage-Service_64" stroke="none" stroke-width="1" fill="none" fill-rule="evenodd">
        <g id="Icon-Architecture-BG/64/Storage" fill="#7AA116">
            <rect id="Rectangle" x="0" y="0" width="80" height="80" />
        </g>
        <g id="Icon-Service/64/Amazon-Simple-Storage-Service_64" transform="translate(12.999900, 11.999600)" fill="#FFFFFF">
            <path d="M47.836,30.893 L48.22,28.189 C51.761,30.31 51.807,31.186 51.8060132,31.21 C51.8,31.215 51.196,31.719 47.836,30.893 L47.836,30.893 Z M45.893,30.353 C39.773,28.501 31.25,24.591 27.801,22.961 C27.801,22.947 27.805,22.934 27.805,22.92 C27.805,21.595 26.727,20.517 25.401,20.517 C24.077,20.517 22.999,21.595 22.999,22.92 C22.999,24.245 24.077,25.323 25.401,25.323 C25.983,25.323 26.511,25.106 26.928,24.761 C30.986,26.682 39.443,30.535 45.608,32.355 L43.17,49.561 C43.163,49.608 43.16,49.655 43.16,49.702 C43.16,51.217 36.453,54 25.494,54 C14.419,54 7.641,51.217 7.641,49.702 C7.641,49.656 7.638,49.611 7.632,49.566 L2.538,12.359 C6.947,15.394 16.43,17 25.5,17 C34.556,17 44.023,15.4 48.441,12.374 L45.893,30.353 Z M2,8.478 C2.072,7.162 9.634,2 25.5,2 C41.364,2 48.927,7.161 49,8.478 L49,8.927 C48.13,11.878 38.33,15 25.5,15 C12.648,15 2.843,11.868 2,8.913 L2,8.478 Z M51,8.5 C51,5.035 41.066,0 25.5,0 C9.934,0 0,5.035 0,8.5 L0.094,9.254 L5.642,49.778 C5.775,54.31 17.861,56 25.494,56 C34.966,56 45.029,53.822 45.159,49.781 L47.555,32.884 C48.888,33.203 49.985,33.366 50.866,33.366 C52.049,33.366 52.849,33.077 53.334,32.499 C53.732,32.025 53.884,31.451 53.77,30.84 C53.511,29.456 51.868,27.964 48.522,26.055 L50.898,9.293 L51,8.5 Z" id="Amazon-Simple-Storage-Service-Icon_64_Squid" />
        </g>
    </g>
</svg></g></g><g data-cell-id="s3-label"><g><rect x="1232" y="519" width="210" height="27" fill="none" stroke="none" pointer-events="all" /></g><g><g><switch><foreignObject style="overflow: visible; text-align: left;" pointer-events="none" width="100%" height="100%" requiredFeatures="http://www.w3.org/TR/SVG11/feature#Extensibility"><html:div style="display: flex; align-items: unsafe center; justify-content: unsafe center; width: 208px; height: 1px; padding-top: 533px; margin-left: 1233px;"><html:div style="box-sizing: border-box; font-size: 0; text-align: center; color: #232F3E; "><html:div style="display: inline-block; font-size: 18px; font-family: Arial; color: light-dark(#232F3E, #bdc7d4); line-height: 1.2; pointer-events: all; font-weight: bold; white-space: normal; word-wrap: normal; ">Amazon S3</html:div></html:div></html:div></foreignObject><text x="1337" y="538" fill="#232F3E" font-family="Arial" font-size="18px" text-anchor="middle" font-weight="bold" style="fill: light-dark(rgb(35, 47, 62), rgb(189, 199, 212));">Amazon S3</text></switch></g></g></g><g data-cell-id="s3-sub"><g><rect x="1224" y="551" width="226" height="22" fill="none" stroke="none" pointer-events="all" /></g><g><g><switch><foreignObject style="overflow: visible; text-align: left;" pointer-events="none" width="100%" height="100%" requiredFeatures="http://www.w3.org/TR/SVG11/feature#Extensibility"><html:div style="display: flex; align-items: unsafe center; justify-content: unsafe center; width: 224px; height: 1px; padding-top: 562px; margin-left: 1225px;"><html:div style="box-sizing: border-box; font-size: 0; text-align: center; color: #607180; "><html:div style="display: inline-block; font-size: 13px; font-family: Arial; color: light-dark(#607180, #82919e); line-height: 1.2; pointer-events: all; white-space: normal; word-wrap: normal; ">Bucket + collection prefix</html:div></html:div></html:div></foreignObject><text x="1337" y="566" fill="#607180" font-family="Arial" font-size="13px" text-anchor="middle" style="fill: light-dark(rgb(96, 113, 128), rgb(130, 145, 158));">Bucket + collection prefix</text></switch></g></g></g><g data-cell-id="s3-detail"><g><rect x="1224" y="578" width="226" height="22" fill="none" stroke="none" pointer-events="all" /></g><g><g><switch><foreignObject style="overflow: visible; text-align: left;" pointer-events="none" width="100%" height="100%" requiredFeatures="http://www.w3.org/TR/SVG11/feature#Extensibility"><html:div style="display: flex; align-items: unsafe center; justify-content: unsafe center; width: 224px; height: 1px; padding-top: 589px; margin-left: 1225px;"><html:div style="box-sizing: border-box; font-size: 0; text-align: center; color: #607180; "><html:div style="display: inline-block; font-size: 13px; font-family: Arial; color: light-dark(#607180, #82919e); line-height: 1.2; pointer-events: all; white-space: normal; word-wrap: normal; ">logs · packs · roots · fences</html:div></html:div></html:div></foreignObject><text x="1337" y="593" fill="#607180" font-family="Arial" font-size="13px" text-anchor="middle" style="fill: light-dark(rgb(96, 113, 128), rgb(130, 145, 158));">logs · packs · roots · fences</text></switch></g></g></g><g data-cell-id="footer"><g><rect x="290" y="740" width="1170" height="24" fill="none" stroke="none" pointer-events="all" /></g><g><g><switch><foreignObject style="overflow: visible; text-align: left;" pointer-events="none" width="100%" height="100%" requiredFeatures="http://www.w3.org/TR/SVG11/feature#Extensibility"><html:div style="display: flex; align-items: unsafe center; justify-content: unsafe center; width: 1168px; height: 1px; padding-top: 752px; margin-left: 291px;"><html:div style="box-sizing: border-box; font-size: 0; text-align: center; color: #526170; "><html:div style="display: inline-block; font-size: 14px; font-family: Arial; color: light-dark(#526170, #919eab); line-height: 1.2; pointer-events: all; font-weight: bold; white-space: normal; word-wrap: normal; ">ONE ACTIVE WRITER     •     S3 IS AUTHORITATIVE     •     EBS CACHE IS REPLACEABLE</html:div></html:div></html:div></foreignObject><text x="875" y="756" fill="#526170" font-family="Arial" font-size="14px" text-anchor="middle" font-weight="bold" style="fill: light-dark(rgb(82, 97, 112), rgb(145, 158, 171));">ONE ACTIVE WRITER • S3 IS AUTHORITATIVE • EBS CACHE IS REPLACEABLE</text></switch></g></g></g></g></g></g><switch><g requiredFeatures="http://www.w3.org/TR/SVG11/feature#Extensibility" /><a transform="translate(0,-5)" xlink:href="https://www.drawio.com/doc/faq/svg-export-text-problems" target="_blank"><text text-anchor="middle" font-size="10px" x="50%" y="100%">Text is not SVG - cannot display</text></a></switch></svg>